# xmcd
#
# Track frame offsets: 
#        150
#        16928
#        27913
#        38791
#        50922
#        68587
#        81274
#        96796
#        109588
#        122163
#        133369
#        148027
#        161095
#        171950
#
# Disc length: 2436 seconds
#
# Revision: 0
# Processed by: cddbd v1.5.2PL0 Copyright (c) Steve Scherf et al.
# Submitted via: ExactAudioCopy v0.99pb4
#
DISCID=c409820e
DTITLE=The Modern Sounds - Hold It Fellas... It's The Modern Sounds
DYEAR=2009
DGENRE=Blues
TTITLE0=Blues Roundup
TTITLE1=Goin' On Down The Line
TTITLE2=Alabama Shake
TTITLE3=Don't Change Your Pretty Ways
TTITLE4=Bacon Fat
TTITLE5=Lonesome Joe From Kokomo
TTITLE6=Flying Home
TTITLE7=Where The Rio De Rosa Flows
TTITLE8=Sugaree
TTITLE9=All By Myself
TTITLE10=Ventrella Stroll
TTITLE11=Strange Kinda Feeling
TTITLE12=My Next Door Neighbor
TTITLE13=Relaxin' At Ventrella
EXTD=
EXTT0=
EXTT1=
EXTT2=
EXTT3=
EXTT4=
EXTT5=
EXTT6=
EXTT7=
EXTT8=
EXTT9=
EXTT10=
EXTT11=
EXTT12=
EXTT13=
PLAYORDER=
